<svg id="Capa_1" enable-background="new 0 0 512 512" height="512" viewBox="0 0 512 512" width="512" xmlns="http://www.w3.org/2000/svg"><g><circle cx="256" cy="256" fill="#72f4c3" r="256"/><path d="m512 256c0 141.382-114.618 256-256 256-6.779 0-13.506-.268-20.15-.783 131.956-10.281 235.839-120.624 235.839-255.217s-103.883-244.936-235.839-255.217c6.644-.515 13.371-.783 20.15-.783 141.382 0 256 114.618 256 256z" fill="#69e8b4"/><circle cx="256" cy="256" fill="#dcfbed" r="223.783"/><path d="m479.781 256c0 123.589-100.192 223.781-223.781 223.781-7.45 0-14.814-.363-22.071-1.08 113.221-11.083 201.699-106.562 201.699-222.701s-88.478-211.618-201.699-222.702c7.257-.716 14.622-1.08 22.071-1.08 123.589.001 223.781 100.193 223.781 223.782z" fill="#9ff7d3"/><g><circle cx="256" cy="256" fill="#27e19d" r="187.727"/></g><g><path d="m443.73 256c0 103.513-84.217 187.73-187.73 187.73-9.127 0-18.1-.659-26.878-1.916 90.821-13.084 160.843-91.429 160.843-185.814s-70.022-172.73-160.843-185.814c8.777-1.257 17.75-1.916 26.878-1.916 103.513 0 187.73 84.217 187.73 187.73z" fill="#26d192"/></g><path d="m361.49 239.187c-20.268-4.899-48.329-8.266-79.015-9.48-.936-.036-1.832.101-2.67.369v-15.314h68.638c4.616 0 8.361-3.746 8.361-8.361v-30.895c0-4.615-3.746-8.361-8.361-8.361h-184.886c-4.616 0-8.361 3.746-8.361 8.361v30.894c0 4.615 3.746 8.361 8.361 8.361h68.638v15.748c-1.109-.537-2.36-.817-3.671-.762-30.455 1.253-58.275 4.632-78.336 9.518-25.018 6.093-36.67 13.952-36.67 24.734 0 11.97 14.513 20.462 45.673 26.724 20.205 4.061 45.545 6.692 73.004 7.661v103.145c0 4.616 3.746 8.361 8.361 8.361h30.887c4.615 0 8.361-3.746 8.361-8.361v-103.145c27.459-.968 52.799-3.6 73.004-7.661 31.16-6.262 45.673-14.754 45.673-26.724.001-10.826-11.754-18.711-36.991-24.812zm-194.538 37.289c-25.318-4.608-35.037-9.992-37.525-12.452 1.72-1.681 7.993-6.172 28.646-10.723 18.673-4.114 43.919-6.995 71.088-8.113 1.088-.045 2.113-.315 3.035-.76v38.496c-24.218-.88-46.809-3.093-65.244-6.448zm178.096 0c-18.435 3.356-41.026 5.569-65.244 6.448v-38.147c.652.21 1.34.343 2.058.371 27.394 1.083 52.874 3.954 71.747 8.083 19.202 4.201 26.861 8.685 28.981 10.774-2.455 2.451-12.159 7.851-37.542 12.471z" fill="#26d192"/><path d="m356.804 162.57v30.895c0 4.618-3.743 8.361-8.361 8.361h-63.487c-2.845 0-5.151 2.306-5.151 5.151v181.616c0 4.618-3.743 8.361-8.361 8.361h-30.887c-4.618 0-8.361-3.743-8.361-8.361v-181.616c0-2.845-2.306-5.151-5.151-5.151h-63.487c-4.618 0-8.361-3.743-8.361-8.361v-30.895c0-4.618 3.743-8.361 8.361-8.361h184.886c4.617-.001 8.36 3.743 8.36 8.361z" fill="#dcfbed"/><g><g><path d="m279.805 282.924v15.46c-7.784.268-15.744.41-23.805.41s-16.02-.142-23.805-.41v-15.46c7.784.284 15.744.426 23.805.426 8.06 0 16.02-.142 23.805-.426z" fill="#72f4c3"/><path d="m384.502 265.699h.008z" fill="#26d192"/></g></g><g><path d="m357.339 224.878c-20.634-4.605-47.862-7.634-77.531-8.695v15.463c26.311.968 50.788 3.544 69.795 7.376 22.324 4.522 30.875 9.539 33.048 11.785-2.328 2.442-11.929 7.943-37.509 12.651-24.374 4.492-56.042 6.964-89.142 6.964s-64.767-2.472-89.142-6.964c-25.579-4.708-35.181-10.209-37.509-12.651 2.174-2.246 10.724-7.263 33.048-11.785 19.007-3.832 43.484-6.408 69.795-7.376v-15.463c-29.669 1.061-56.897 4.09-77.531 8.695-28.072 6.243-41.145 14.484-41.145 25.93 0 12.033 14.505 20.583 45.658 26.908 25.95 5.264 60.327 8.159 96.827 8.159s70.876-2.895 96.827-8.159c31.153-6.325 45.658-14.876 45.658-26.908-.002-11.445-13.075-19.687-41.147-25.93z" fill="#9ff7d3"/></g></g></svg>